# xmcd CD database file
#
# Track frame offsets:
#	150
#	20495
#	46042
#	64437
#	79175
#	113147
#	122795
#	145755
#	172585
#	208945
#	241622
#	265397
#
# Disc length: 3891 seconds
#
# Revision: 0
# Processed by: cddbd v1.5PL3 Copyright (c) Steve Scherf et al.
# Submitted via: CDex 1.51
#
DISCID=a00f310c
DTITLE=Various Artist - All That Jazz from Denmark
DYEAR=1995
DGENRE=Jazz
TTITLE0=THIS IS THE WAY IT GOES - Hans Ulrik Quartet
TTITLE1=DANCING IN THE DARK - Thomas Clausen Trio
TTITLE2=BIRD SONG - Lundgaard, Fischer, Riel and Rockwell Quartet
TTITLE3=CHRISTOPHER COLUMBUS - Blachman Introduces Standard Jazz and Rap Vol. 1
TTITLE4=SOAK - Embla
TTITLE5=HVÆLVER - Kim Kristensen and Ildvæverne
TTITLE6=WHY FOUR - Countdown
TTITLE7=SUBATOMIC BLUES - Ane Ramløse Sextet
TTITLE8=FOUR - Karsten Houmark Quartet
TTITLE9=CRYSTAL BALL - Tomas Franck Quartet
TTITLE10=THE CLINCH - Nikolaj Bentzon and The Scandinavian Connection
TTITLE11=BODY AND SOUL - Klüvers Big Band feat. Jesper Thilo
EXTD=YEAR: 1995
EXTT0=
EXTT1=
EXTT2=
EXTT3=
EXTT4=
EXTT5=
EXTT6=
EXTT7=
EXTT8=
EXTT9=
EXTT10=
EXTT11=
PLAYORDER=
